<svg fill="none" height="204" width="414" xmlns="http://www.w3.org/2000/svg"><path d="m48 156v-64l44-44 20 20v-20h17v37l7 7v64h-37v-36.044a12.99 12.99 0 0 0 6-10.956c0-7.18-5.82-13-13-13s-13 5.82-13 13c0 4.603 2.392 8.646 6 10.956v36.044z" fill="#f4440d"/><path d="m166.897 105.466a.722.722 0 0 1 -.525-.224c-.1-.15-.15-.35-.15-.6v-47.436c0-.25.05-.45.15-.6a.72.72 0 0 1 .525-.225h9.067c4.647 0 8.044 1.3 10.192 3.897 2.198 2.548 3.297 6.495 3.297 11.84 0 5.096-1.124 8.993-3.372 11.691s-5.495 4.047-9.742 4.047h-2.323v16.786c0 .25-.075.45-.225.6a.506.506 0 0 1 -.449.224zm9.067-24.804c1.949 0 3.373-.675 4.272-2.024.949-1.349 1.424-3.472 1.424-6.37 0-3.147-.425-5.395-1.274-6.744-.849-1.35-2.248-2.023-4.197-2.023h-2.173v17.16h1.948zm21.283 24.804a.719.719 0 0 1 -.524-.224c-.1-.15-.15-.35-.15-.6v-47.436c0-.25.05-.45.15-.6a.716.716 0 0 1 .524-.225h9.967c4.696 0 8.118 1.15 10.267 3.447 2.198 2.249 3.297 5.77 3.297 10.567 0 7.044-1.923 11.516-5.77 13.414v.075l7.569 20.533c.049.1.074.25.074.45 0 .4-.199.599-.599.599h-6.969c-.4 0-.675-.199-.825-.599l-6.669-19.484h-3.223v19.259c0 .25-.075.45-.224.6a.506.506 0 0 1 -.45.224zm9.967-26.828c2.048 0 3.522-.624 4.421-1.873.9-1.25 1.349-3.198 1.349-5.846 0-2.647-.474-4.52-1.424-5.62-.899-1.149-2.348-1.724-4.346-1.724h-2.848v15.063zm22.652 26.828a.719.719 0 0 1 -.524-.224c-.1-.15-.15-.35-.15-.6v-47.436c0-.25.05-.45.15-.6a.716.716 0 0 1 .524-.225h6.445c.2 0 .35.075.449.225.15.15.225.35.225.6v47.436c0 .25-.075.45-.225.6a.503.503 0 0 1 -.449.224zm23.338 0c-.349 0-.574-.224-.674-.674l-9.442-47.437v-.3c0-.449.174-.674.524-.674h7.044c.4 0 .65.2.75.6l4.796 29.676c.549 3.197 1.024 6.77 1.424 10.716h.15c.349-3.297.849-6.87 1.498-10.716l4.722-29.601c.1-.45.349-.675.749-.675h6.969c.55 0 .75.3.6.9l-9.368 47.511c-.05.45-.274.674-.674.674zm49.53-.599c0 .4-.2.599-.6.599h-7.044c-.4 0-.649-.199-.749-.599l-1.649-10.117h-9.817l-1.724 10.042c-.05.45-.299.674-.749.674h-6.894c-.45 0-.625-.299-.525-.899l9.742-47.511c.15-.45.45-.675.899-.675h8.394c.499 0 .774.225.824.675l9.817 47.436zm-11.166-16.861-2.173-13.115a231.937 231.937 0 0 1 -1.574-10.341h-.15c-.549 4.396-1.049 7.843-1.499 10.341l-2.173 13.115zm28.755 17.91c-8.992 0-13.489-5.371-13.489-16.112v-17.76c0-5.346 1.149-9.368 3.448-12.066 2.298-2.697 5.645-4.046 10.041-4.046 4.147 0 7.369 1.249 9.668 3.747 2.298 2.448 3.447 5.82 3.447 10.116 0 1.05-.075 2.099-.225 3.148-.1.55-.325.824-.674.824h-6.445c-.55 0-.775-.3-.675-.9.05-.499.075-1.223.075-2.172 0-5.046-1.723-7.57-5.171-7.57-1.948 0-3.397.725-4.346 2.174-.899 1.449-1.349 3.797-1.349 7.044v17.087c0 3.298.45 5.67 1.349 7.12.949 1.448 2.398 2.173 4.346 2.173 3.498 0 5.246-2.548 5.246-7.644 0-.9-.025-1.599-.075-2.098 0-.6.225-.9.675-.9h6.295c.499 0 .774.3.824.9.05.5.075 1.249.075 2.248 0 4.646-1.124 8.268-3.372 10.866-2.199 2.548-5.421 3.822-9.668 3.822zm28.189-.45a.72.72 0 0 1 -.524-.224c-.1-.15-.15-.35-.15-.6v-16.037l-10.117-31.175c-.05-.1-.075-.25-.075-.45 0-.399.175-.599.525-.599h7.269c.449 0 .699.2.749.6l3.522 14.463c.3 1.2.5 2.098.6 2.698a979.7 979.7 0 0 1 1.424 6.145h.075c.349-1.749 1.049-4.721 2.098-8.918l3.522-14.388c.05-.4.275-.6.674-.6h7.12c.249 0 .424.1.524.3s.1.45 0 .75l-10.117 31.1v16.111c0 .25-.049.45-.149.6a.506.506 0 0 1 -.45.224zm-168.088 50.648c0 .235-.117.352-.352.352h-4.136c-.235 0-.381-.117-.44-.352l-.968-5.94h-5.764l-1.012 5.896c-.029.264-.176.396-.44.396h-4.048c-.264 0-.367-.176-.308-.528l5.72-27.896c.088-.264.264-.396.528-.396h4.928c.293 0 .455.132.484.396l5.764 27.852zm-6.556-9.9-1.276-7.7c-.381-2.2-.689-4.224-.924-6.072h-.088c-.323 2.582-.616 4.606-.88 6.072l-1.276 7.7zm16.884 10.516c-5.28 0-7.92-3.153-7.92-9.46v-10.428c0-3.138.674-5.5 2.024-7.084 1.349-1.584 3.314-2.376 5.896-2.376 2.434 0 4.326.734 5.676 2.2 1.349 1.438 2.024 3.418 2.024 5.94 0 .616-.044 1.232-.132 1.848-.059.323-.191.484-.396.484h-3.784c-.323 0-.455-.176-.396-.528.029-.293.044-.718.044-1.276 0-2.962-1.012-4.444-3.036-4.444-1.144 0-1.995.426-2.552 1.276-.528.851-.792 2.23-.792 4.136v10.032c0 1.936.264 3.33.792 4.18.557.851 1.408 1.276 2.552 1.276 2.053 0 3.08-1.496 3.08-4.488 0-.528-.015-.938-.044-1.232 0-.352.132-.528.396-.528h3.696c.293 0 .454.176.484.528.029.294.044.734.044 1.32 0 2.728-.66 4.855-1.98 6.38-1.291 1.496-3.183 2.244-5.676 2.244zm19.71 0c-5.28 0-7.92-3.153-7.92-9.46v-10.428c0-3.138.675-5.5 2.024-7.084 1.35-1.584 3.315-2.376 5.896-2.376 2.435 0 4.327.734 5.676 2.2 1.35 1.438 2.024 3.418 2.024 5.94 0 .616-.044 1.232-.132 1.848-.058.323-.19.484-.396.484h-3.784c-.322 0-.454-.176-.396-.528.03-.293.044-.718.044-1.276 0-2.962-1.012-4.444-3.036-4.444-1.144 0-1.994.426-2.552 1.276-.528.851-.792 2.23-.792 4.136v10.032c0 1.936.264 3.33.792 4.18.558.851 1.408 1.276 2.552 1.276 2.054 0 3.08-1.496 3.08-4.488 0-.528-.014-.938-.044-1.232 0-.352.132-.528.396-.528h3.696c.294 0 .455.176.484.528.03.294.044.734.044 1.32 0 2.728-.66 4.855-1.98 6.38-1.29 1.496-3.182 2.244-5.676 2.244zm12.799-.264a.421.421 0 0 1 -.308-.132.475.475 0 0 1 -.132-.352v-27.852c0-.146.029-.264.088-.352a.421.421 0 0 1 .308-.132h11.528c.264 0 .396.162.396.484v3.212c0 .352-.132.528-.396.528h-7.348v7.964h6.688c.264 0 .396.162.396.484v3.036c0 .323-.132.484-.396.484h-6.688v8.404h7.348c.264 0 .396.176.396.528v3.212c0 .323-.132.484-.396.484zm17.089 0a.423.423 0 0 1 -.308-.132.475.475 0 0 1 -.132-.352v-27.852c0-.322.147-.484.44-.484h3.696c.118 0 .22.044.308.132a.477.477 0 0 1 .132.352v24.112h6.864c.294 0 .44.176.44.528v3.212c0 .323-.146.484-.44.484zm15.672 0a.421.421 0 0 1 -.308-.132.475.475 0 0 1 -.132-.352v-27.852c0-.146.029-.264.088-.352a.421.421 0 0 1 .308-.132h11.528c.264 0 .396.162.396.484v3.212c0 .352-.132.528-.396.528h-7.348v7.964h6.688c.264 0 .396.162.396.484v3.036c0 .323-.132.484-.396.484h-6.688v8.404h7.348c.264 0 .396.176.396.528v3.212c0 .323-.132.484-.396.484zm17.045 0a.423.423 0 0 1 -.308-.132.63.63 0 0 1 -.088-.352v-27.852c0-.146.03-.264.088-.352a.423.423 0 0 1 .308-.132h5.852c2.758 0 4.767.675 6.028 2.024 1.291 1.32 1.936 3.388 1.936 6.204 0 4.136-1.129 6.762-3.388 7.876v.044l4.444 12.056c.03.059.044.147.044.264 0 .235-.117.352-.352.352h-4.092c-.234 0-.396-.117-.484-.352l-3.916-11.44h-1.892v11.308a.475.475 0 0 1 -.132.352c-.058.088-.146.132-.264.132zm5.852-15.752c1.203 0 2.068-.366 2.596-1.1.528-.733.792-1.877.792-3.432 0-1.554-.278-2.654-.836-3.3-.528-.674-1.378-1.012-2.552-1.012h-1.672v8.844zm28.479 15.4c0 .235-.117.352-.352.352h-4.136c-.234 0-.381-.117-.44-.352l-.968-5.94h-5.764l-1.012 5.896c-.029.264-.176.396-.44.396h-4.048c-.264 0-.366-.176-.308-.528l5.72-27.896c.088-.264.264-.396.528-.396h4.928c.294 0 .455.132.484.396l5.764 27.852zm-6.556-9.9-1.276-7.7c-.381-2.2-.689-4.224-.924-6.072h-.088c-.322 2.582-.616 4.606-.88 6.072l-1.276 7.7zm12.033 10.252c-.264 0-.396-.161-.396-.484v-24.112h-4.488c-.264 0-.396-.176-.396-.528v-3.212c0-.322.132-.484.396-.484h13.508c.293 0 .44.162.44.484v3.212c0 .352-.147.528-.44.528h-4.444v24.112c0 .323-.132.484-.396.484zm19.921.264c-2.581 0-4.547-.748-5.896-2.244-1.349-1.525-2.024-3.769-2.024-6.732v-11.308c0-3.021.675-5.28 2.024-6.776 1.349-1.525 3.315-2.288 5.896-2.288s4.547.763 5.896 2.288c1.349 1.496 2.024 3.755 2.024 6.776v11.308c0 2.963-.675 5.207-2.024 6.732-1.349 1.496-3.315 2.244-5.896 2.244zm0-4.224c1.144 0 1.98-.396 2.508-1.188.557-.792.836-2.053.836-3.784v-10.868c0-1.789-.279-3.08-.836-3.872-.528-.792-1.364-1.188-2.508-1.188s-1.995.396-2.552 1.188c-.528.792-.792 2.083-.792 3.872v10.868c0 1.731.264 2.992.792 3.784.557.792 1.408 1.188 2.552 1.188zm13.012 3.96a.423.423 0 0 1 -.308-.132.63.63 0 0 1 -.088-.352v-27.852c0-.146.03-.264.088-.352a.423.423 0 0 1 .308-.132h5.852c2.758 0 4.767.675 6.028 2.024 1.291 1.32 1.936 3.388 1.936 6.204 0 4.136-1.129 6.762-3.388 7.876v.044l4.444 12.056c.03.059.044.147.044.264 0 .235-.117.352-.352.352h-4.092c-.234 0-.396-.117-.484-.352l-3.916-11.44h-1.892v11.308a.475.475 0 0 1 -.132.352c-.058.088-.146.132-.264.132zm5.852-15.752c1.203 0 2.068-.366 2.596-1.1.528-.733.792-1.877.792-3.432 0-1.554-.278-2.654-.836-3.3-.528-.674-1.378-1.012-2.552-1.012h-1.672v8.844z" fill="#fff"/></svg>