<svg fill="none" height="183" viewBox="0 0 184 183" width="184" xmlns="http://www.w3.org/2000/svg"><path d="m75.164 59.0907c-21.1314 16.0602-27.0869 45.7513-13.6823 68.4863 3.7064 6.367 8.7168 11.903 14.7127 16.258 5.9953 4.353 12.8444 7.429 20.1108 9.032 5.3918 1.23 10.9458 1.616 16.4588 1.145 1.442-.117 2.892-.104 4.333.04 7.981-1.093 15.591-4.012 22.221-8.523 6.631-4.512 12.096-10.491 15.961-17.459.306-1.377.784-2.71 1.423-3.971 2.48-5.124 4.126-10.601 4.877-16.23.002-.168.015-.336.039-.501 1.242-10.3844-.655-20.9003-5.453-30.2294-4.797-9.3289-12.282-17.0563-21.514-22.2132-9.233-5.1568-19.803-7.5126-30.384-6.7724-10.5811.7401-20.7027 4.5427-29.0954 10.9326zm75.411 49.5213c-.041.119-.054.245-.042.37-.596 4.343-1.878 8.567-3.799 12.518-.49.966-.851 1.991-1.075 3.05-2.981 5.371-7.192 9.983-12.298 13.469s-10.967 5.751-17.118 6.615c-1.125-.112-2.259-.128-3.387-.047-8.535.705-17.084-1.209-24.4758-5.481-7.3904-4.272-13.2613-10.693-16.8061-18.381-3.5456-7.688-4.5908-16.267-2.9941-24.5607 1.5971-8.2929 5.7576-15.8947 11.913-21.7614 6.1547-5.8662 14.0022-9.7116 22.465-11.007 8.464-1.2953 17.128.0223 24.804 3.7715 7.678 3.7498 13.991 9.7472 18.076 17.1717 4.085 7.4232 5.74 15.9089 4.74 24.2929z" fill="#adf13f"/><path d="m155.264 127.891c-.663 2.734-.733 5.568-.207 8.319.525 2.75 1.634 5.354 3.256 7.644l1.392 1.979c4.86 6.912 4.072 16.62-2.436 22.091-1.758 1.48-3.808 2.585-6.018 3.246-2.211.66-4.531.861-6.815.589-2.282-.272-4.476-1.011-6.439-2.169-1.964-1.157-3.655-2.708-4.962-4.553l-1.864-2.651c-1.627-2.305-3.732-4.245-6.179-5.695-2.448-1.45-5.183-2.379-8.03-2.724 7.983-1.146 15.607-4.102 22.262-8.633s12.158-10.511 16.07-17.464z" fill="#353642"/><g stroke="#000" stroke-miterlimit="10"><g stroke-width="5.5"><path d="m155.264 127.891c-.663 2.734-.733 5.568-.207 8.319.525 2.75 1.634 5.354 3.256 7.644l1.392 1.979c4.86 6.912 4.072 16.62-2.436 22.091-1.758 1.48-3.808 2.585-6.018 3.246-2.211.66-4.531.861-6.815.589-2.282-.272-4.476-1.011-6.439-2.169-1.964-1.157-3.655-2.708-4.962-4.553l-1.864-2.651c-1.627-2.305-3.732-4.245-6.179-5.695-2.448-1.45-5.183-2.379-8.03-2.724 7.983-1.146 15.607-4.102 22.262-8.633s12.158-10.511 16.07-17.464z"/><path d="m152.414 70.932c7.51 10.6316 10.789 23.6145 9.213 36.478-.022.157-.033.316-.034.475-.756 5.635-2.411 11.118-4.903 16.245-.628 1.262-1.103 2.592-1.417 3.964-3.871 6.958-9.338 12.93-15.964 17.441s-14.229 7.435-22.203 8.541c-1.447-.156-2.905-.175-4.355-.055-10.203.851-20.4397-1.179-29.5123-5.849-9.0738-4.672-16.6079-11.792-21.7228-20.528-6.976-11.858-9.0198-25.916-5.7042-39.2295 3.3164-13.3138 11.7351-24.8467 23.4912-32.1808 11.7555-7.3348 25.9361-9.901 39.5661-7.1612 13.631 2.7405 25.652 10.5745 33.545 21.8595z"/><path d="m126.899 154.008-33.4881-26.325-9.1534-7.685c-.1991-.283-.2982-.622-.2829-.965.0165-.343.1465-.671.371-.933.2245-.261.5301-.442.8702-.514s.6952-.03 1.0101.117c5.0465 2.416 12.1142 4.944 15.5831 2.388 5.757-4.24-11.58-18.69-15.0971-13.535-3.517 5.155 13.9881 10.576 24.5481 5.534 10.56-5.043-3.214-19.139-10.576-15.0408-7.3632 4.0978 6.814 14.2138 20.867 8.0138 14.054-6.2006 2.185-18.191-3.092-18.6021-5.278-.4111 6.783 14.5341 16.359 11.7111 3.035-.889 3.8-3.9437 3.268-6.732-.315-1.6213-5.015-7.7018-4.8-4.9842.453 5.5633 3.476 10.8311 5.409 15.9922 4.08 10.927 6.592 22.339 11.031 33.143"/></g><g stroke-width="7.34"><path d="m66.2308 41.5201-18.706-25.7057"/><path d="m32.9908 100.832-31.9908-6.0844"/><path d="m135.278 32.2325 5.75-31.23247"/></g></g></svg>