<svg fill="none" height="395" viewBox="0 0 447 395" width="447" xmlns="http://www.w3.org/2000/svg"><path d="m89.4 123.924s-26.7356-79.2627 66.519-69.5887c93.254 9.6739 48.698-25.409 83.936-47.18037 35.239-21.77133 139.067 45.96117 95.628 111.29007-43.438 65.329 69.42 5.569 92.962 103.811 14.527 60.626-21.516 105.249-51.252 130.543" stroke="#ccdde2" stroke-miterlimit="10" stroke-width="5"/><path d="m386.287 277.056c-7.007-40.661-31.821-77.048-72.135-90.071-10.313-3.313-20.859-5.849-31.549-7.589v.055c-.557 3.375-1.877 6.579-3.859 9.365-4.202 5.768-9.993 10.505-16.698 12.974-6.844 2.538-15.322 2.866-21.674-1.125-3.825-2.399-7.535-6.623-8.205-11.182-.765-5.135 1.847-9.997 5.523-13.391-31.151.254-60.454 5.389-83.937 11.237.814 3.414 1.941 6.745 3.368 9.952 1.996 4.47 4.816 8.523 8.314 11.943 4.362-4.33 8.181-9.176 11.373-14.431 3.054 1.001 5.747 2.88 7.743 5.403 1.997 2.522 3.209 5.577 3.487 8.784v.165c1.232 11.649-9.963 20.403-19.37 25.787-10.867 6.26-22.981 10.948-34.881 14.844-4.907 1.613-11.284 2.986-16.464 1.304-.558-.178-1.103-.396-1.629-.652-5.166-2.538-8.623-7.858-11.32-12.719-7.6829-13.81-12.6794-28.863-16.0667-44.314-23.5072 3.01-26.1991-12.939-27.5948-16.85l-20.11 56.327c-1.0549 4.048-1.1687 8.286-.3338 12.386.8354 4.1 2.5981 7.953 5.1525 11.264 2.5538 3.311 5.8318 5.991 9.5812 7.834 3.7498 1.843 7.8711 2.8 12.0476 2.797h83.251l37.816 97.188 10.719 27.583h61.219c-4.967 0-7.684-1.214-9.656-3.194-2.036-2.042-3.182-4.808-3.188-7.694 0-5.971 4.892-10.868 12.844-10.868h.561c-.601 0-1.177-.055-1.778-.109.372-.041.742-.103 1.107-.185-.393-.009-.786-.039-1.177-.089 3.587-.425 6.91-2.098 9.39-4.729 2.479-2.631 3.957-6.051 4.174-9.663.01-.187.01-.375 0-.562v-.289c-.085-3.702-1.498-7.251-3.979-9.996-2.481-2.746-5.866-4.506-9.535-4.957.417-.035.815-.07 1.217-.07-.363-.09-.765-.144-1.143-.199.596-.055 1.197-.095 1.774-.095l44.789.239 8.24.035h9.779c.452 0 .909 0 1.341.055l14.528.074 9.704.055c4.057.034 7.934 1.676 10.785 4.567 2.85 2.891 4.443 6.796 4.428 10.86-.005 2.298-.537 4.563-1.554 6.623 4.164-.534 8.025-2.463 10.956-5.474 6.988-7.151 9.998-17.855 12.079-27.369 3.68-16.95 3.462-34.81.546-51.834zm-113.16 1.145c-8.438 13.013-22.807 11.843-22.807 11.843s-1.192 1.165-3.973-3.791c-2.782-4.957-10.703-8.346-10.703-8.346-.631 4.977-1.937 12.541-14.9 2.737-12.963-9.803-9.055-24.095-7.947-31.644 1.107-7.549 5.523-10.052 5.523-10.052l5.215-2.757s-15.084-3.887-15.809-4.031-14.16-11.416-.527-14.391c13.634-2.976 34.886 8.857 38.994 11.196 4.107 2.339 28.111 22.682 28.111 22.682s7.306 13.561-1.177 26.554z" fill="#353642"/><path d="m88.2875 193.404s11.3687-1.384 15.6255-9.515l-3.711 20.856s45.227-15.427 53.521-17.417c0 0 2.672 17.262 13.311 21.895l10.976-13.983s13.763 3.483 9.998 22.274c-3.765 18.79-55.835 34.496-64.666 34.132-8.831-.363-18.337-5.807-28.0714-35.063z" fill="#353642"/><g stroke="#000" stroke-miterlimit="10" stroke-width="3"><path d="m106.808 146.945c2.881 4.698 5.776 9.386 8.766 14.014 1.843 2.851 5.2 6.917 1.629 9.897-1.162.893-2.565 1.414-4.028 1.493-2.294.204-4.703-.348-6.099-2.324l-6.953-11.545c-1.3857-2.302-3.5864-3.997-6.1631-4.748-2.5772-.75-5.3416-.501-7.7435.698"/><path d="m133.107 162.151c1.817 4.33.586 7.122-1.54 8.525-3.477 2.284-8.13 1.189-10.594-2.145l-14.14-21.562"/><path d="m118.778 140.675c5.145 6.27 11.637 17.915 15.228 22.777s9.143 1.93 9.143 1.93c4.51-2.433 3.745-6.469 1.773-11.37-4.857-12.033-11.79-20.035-19.524-25.28-23.964-16.243-48.5488-4.26-55.8647 23.777l-28.9308 80.362c-1.0549 4.049-1.1687 8.287-.3338 12.387.8354 4.1 2.5981 7.953 5.1525 11.264 2.5538 3.311 5.8318 5.991 9.5812 7.834 3.7498 1.842 7.8711 2.799 12.0476 2.797h83.251l48.549 124.776"/><path d="m148.503 148.492c5.96-2.07 5.687-11.594-2.771-14.809-9.342-3.553-25.931-8.579-30.098-9.833-.026-.02-.057-.032-.089-.035-.293-.09-.497-.164-.656-.199l-.233-.075"/><path d="m236.562 243.724c-5.215-6.281-19.489-9.839-28.806-11.56-1.566-.295-2.994-1.092-4.07-2.27-1.074-1.179-1.738-2.675-1.89-4.264-.109-1.072.015-2.155.362-3.175.555-1.566 1.62-2.9 3.022-3.788 1.402-.887 3.061-1.278 4.711-1.109 15.894 1.612 32.284 6.624 44.407 17.417 0 0 58.771 44.936 65.789 49.31 2.895 1.762 5.597-.318 3.635-3.085l-.616-1.055c-3.454-5.94-7.542-11.486-12.193-16.541"/><path d="m237.65 176.086c-73.914.617-137.448 28.654-137.448 28.654l6.343-35.621"/></g><path d="m352.45 369.948s-8.051-1.827-10.192 4.632c-2.141 6.46-4.376 16.736 11.016 17.343s6.352-2.424 5.463-7.415-6.287-14.56-6.287-14.56z" fill="#353642"/><path d="m229.46 251.921s-8.687-6.599-16.509.089c-.329.291-.617.626-.854.995" stroke="#000" stroke-miterlimit="10" stroke-width="3"/><g opacity=".77"><path d="m120.943 168.508c2.484 3.339 7.132 4.429 10.594 2.14 2.101-1.394 3.333-4.171 1.56-8.46.323.473.616.891.904 1.274 3.586 4.882 9.143 1.941 9.143 1.941 4.51-2.434 3.75-6.47 1.778-11.376-1.929-4.86-4.461-9.458-7.534-13.685 2.011-1.886 4.4-3.792 6.918-2.956 2.717.906 3.477 4.319 3.785 7.166.144 1.323.288 2.632.432 3.956l2.176 19.487c.725 6.469 1.45 13.033 3.024 19.348.814 3.414 1.941 6.746 3.368 9.953 1.996 4.47 4.816 8.522 8.314 11.943 4.362-4.33 8.181-9.176 11.374-14.432 3.053 1.002 5.746 2.881 7.743 5.403 1.996 2.523 3.209 5.577 3.486 8.785v.164c1.232 11.65-9.963 20.403-19.37 25.787-10.867 6.261-22.981 10.948-34.881 14.845-4.907 1.612-11.284 2.986-16.464 1.304-.558-.179-1.102-.397-1.629-.652-5.166-2.538-8.622-7.858-11.319-12.72-12.9136-23.264-18.2776-49.977-21.1037-76.431 5.6521-.781 11.2843-1.652 16.8467-2.851 0 0 0 .039.035.054l6.412 10.655.526.885c1.391 1.991 3.8 2.523 6.1 2.324 1.462-.072 2.866-.593 4.023-1.493 3.566-2.985.218-7.036-1.63-9.887" fill="#fff" opacity=".77"/><g fill="#adf13f"><path d="m120.943 168.508c2.484 3.339 7.132 4.429 10.594 2.14 2.101-1.394 3.333-4.171 1.56-8.46.323.473.616.891.904 1.274 3.586 4.882 9.143 1.941 9.143 1.941 4.51-2.434 3.75-6.47 1.778-11.376-1.929-4.86-4.461-9.458-7.534-13.685 2.011-1.886 4.4-3.792 6.918-2.956 2.717.906 3.477 4.319 3.785 7.166.144 1.323.288 2.632.432 3.956l2.176 19.487c.725 6.469 1.45 13.033 3.024 19.348.814 3.414 1.941 6.746 3.368 9.953 1.996 4.47 4.816 8.522 8.314 11.943 4.362-4.33 8.181-9.176 11.374-14.432 3.053 1.002 5.746 2.881 7.743 5.403 1.996 2.523 3.209 5.577 3.486 8.785v.164c1.232 11.65-9.963 20.403-19.37 25.787-10.867 6.261-22.981 10.948-34.881 14.845-4.907 1.612-11.284 2.986-16.464 1.304-.558-.179-1.102-.397-1.629-.652-5.166-2.538-8.622-7.858-11.319-12.72-12.9136-23.264-18.2776-49.977-21.1037-76.431 5.6521-.781 11.2843-1.652 16.8467-2.851 0 0 0 .039.035.054l6.412 10.655.526.885c1.391 1.991 3.8 2.523 6.1 2.324 1.462-.072 2.866-.593 4.023-1.493 3.566-2.985.218-7.036-1.63-9.887" opacity=".77"/><path d="m122.468 170.085c2.2 2.986 5.96 2.608 9.069.562 1.878-1.244 3.417-.88 1.833-4.717.293.418.333-.995.591-.682 3.203 4.359.04-1.801.04-1.801 4.47 5.658 14.199.328 12.416-4.046-1.887-4.713-3.874-11.679-6.392-15.163 1.987-1.881 1.604-1.602 4.132-.104.679.437 1.248 1.026 1.661 1.721.413.696.659 1.477.719 2.285.203 1.896.407 3.712.61 5.563l1.937 17.417c.651 5.788 1.297 11.635 2.702 17.268.727 3.046 1.735 6.018 3.01 8.878 1.778 3.936 7.49 10.49 10.609 13.49 3.879-3.856 8.528-10.947 11.374-15.66 5.463 1.682 5.225 6.917 5.612 12.635v.149c1.103 10.396-8.89 18.203-17.264 23.016-9.705 5.588-20.518 9.768-31.141 13.251-4.381 1.444-10.073 2.688-14.697 1.165-.498-.158-.985-.353-1.455-.582-4.609-2.27-7.698-7.012-10.107-11.356-10.5442-18.975-15.4364-40.517-18.1283-62.114-.1977-1.617.2389-3.246 1.2173-4.546s2.4222-2.168 4.0275-2.421c3.0247-.498 6.0395-.996 9.0345-1.662l.084.039 5.722 9.51c1.246 1.767 1.45.383 3.501.204 1.297-.114 3.81-.368 4.813-1.209 3.184-2.657 1.386-3.757-.263-6.3" opacity=".77"/></g></g><path d="m228.412 261.525s-16.494-5.434-16.743 3.703" stroke="#000" stroke-miterlimit="10" stroke-width="3"/><path d="m80.7679 354.595-32.3479-83.034c-.4008-1.607-.4306-3.284-.0879-4.905.3432-1.619 1.0505-3.14 2.0676-4.445 1.0177-1.306 2.3185-2.362 3.8045-3.088 1.4855-.726 3.1171-1.103 4.77-1.103h128.4878c2.885 0 5.686.972 7.952 2.762 2.266 1.789 3.865 4.29 4.539 7.101l35.412 83.015c.383 1.601.399 3.269.046 4.877s-1.065 3.116-2.082 4.409c-1.018 1.293-2.315 2.338-3.794 3.057-1.478.719-3.1 1.092-4.744 1.093h-131.5617c-2.8638.002-5.6456-.956-7.9035-2.721-2.2578-1.764-3.862-4.235-4.5579-7.018z" fill="#fff" opacity=".54"/><path d="m233.781 275.532s2.677 2.458 1.659 5.971c-.755 2.603-3.338 4.245-5.896 3.354-8.145-2.821-15.481-7.613-17.269-15.76-.845-4.124-1.027-8.357-.541-12.54.392-3.876.963-8.062 2.265-11.749 1.986-5.663 8.071-9.609 13.976-6.882" stroke="#000" stroke-miterlimit="10" stroke-width="3"/><path d="m80.7679 354.595-32.3479-83.034c-.4008-1.607-.4306-3.284-.0879-4.905.3432-1.619 1.0505-3.14 2.0676-4.445 1.0177-1.306 2.3185-2.362 3.8045-3.088 1.4855-.726 3.1171-1.103 4.77-1.103h128.4878c2.885 0 5.686.972 7.952 2.762 2.266 1.789 3.865 4.29 4.539 7.101l35.412 83.015c.383 1.601.399 3.269.046 4.877s-1.065 3.116-2.082 4.409c-1.018 1.293-2.315 2.338-3.794 3.057-1.478.719-3.1 1.092-4.744 1.093h-131.5617c-2.8638.002-5.6456-.956-7.9035-2.721-2.2578-1.764-3.862-4.235-4.5579-7.018z" fill="#adf13f"/><path d="m80.7679 354.595-32.3479-83.034c-.4008-1.607-.4306-3.284-.0879-4.905.3432-1.619 1.0505-3.14 2.0676-4.445 1.0177-1.306 2.3185-2.362 3.8045-3.088 1.4855-.726 3.1171-1.103 4.77-1.103h128.4878c2.885 0 5.686.972 7.952 2.762 2.266 1.789 3.865 4.29 4.539 7.101l35.412 83.015c.383 1.601.399 3.269.046 4.877s-1.065 3.116-2.082 4.409c-1.018 1.293-2.315 2.338-3.794 3.057-1.478.719-3.1 1.092-4.744 1.093h-131.5617c-2.8638.002-5.6456-.956-7.9035-2.721-2.2578-1.764-3.862-4.235-4.5579-7.018z" stroke="#000" stroke-linecap="square" stroke-linejoin="round" stroke-width="3"/><path d="m85.5012 351.251-29.8447-76.635c-.3691-1.482-.3959-3.03-.079-4.524s.9695-2.897 1.9087-4.101c.9387-1.204 2.1391-2.178 3.5094-2.847 1.3708-.67 2.8757-1.019 4.4005-1.019h118.5349c2.661-.001 5.245.897 7.335 2.547 2.091 1.65 3.566 3.958 4.187 6.55l32.676 76.591c.353 1.477.366 3.016.041 4.5-.326 1.484-.984 2.874-1.923 4.067s-2.136 2.157-3.5 2.82c-1.364.664-2.861 1.008-4.378 1.008h-121.375c-2.6378.003-5.2006-.877-7.2821-2.5-2.082-1.622-3.5636-3.895-4.2107-6.457z" fill="#adf13f"/><g stroke="#000" stroke-miterlimit="10"><path d="m339.184 339.229 22.727 52.695" stroke-width="3"/><path d="m447 391.924h-447" stroke-width="5.47"/><g stroke-width="3"><path d="m235.604 154.095c-3.686 3.648-9.189 3.643-12.323.269"/><path d="m137.388 140.326c2.011-1.886 4.4-3.792 6.919-2.956 2.716.906 3.476 4.319 3.784 7.166.871 7.823 1.74 15.637 2.608 23.444 1.102 9.952 2.264 20.143 6.392 29.29 1.996 4.47 4.816 8.522 8.314 11.943"/><path d="m188.008 209.153v-.164c-.277-3.207-1.49-6.262-3.486-8.785-1.997-2.522-4.69-4.401-7.743-5.402-3.193 5.255-7.012 10.101-11.374 14.431-11.437 11.394-26.129 18.94-42.038 21.592.765 3.05 2.339 5.827 3.427 8.763s1.629 6.335.308 9.167c-1.669 3.612-6.457 3.14-9.784 2.339-.035 0-.055 0-.09 0"/><path d="m100.098 158.436c-5.5625 1.199-11.1947 2.07-16.8467 2.851 2.826 26.454 8.1701 53.167 21.1037 76.431 2.697 4.862 6.153 10.182 11.319 12.72.527.256 1.071.474 1.629.651 5.18 1.707 11.557.309 16.464-1.303 11.92-3.902 24.014-8.585 34.881-14.845 9.382-5.389 20.577-14.137 19.37-25.787-.117-1.283-.378-2.548-.78-3.772"/></g></g><path d="m193.114 105.665c.833 3.483 2.736 6.615 5.44 8.956 2.705 2.341 6.074 3.772 9.634 4.092.295-1.436.936-2.779 1.867-3.911 3.974-4.692 5.667 4.111 18.377-2.209 17.612-8.778 24.297-3.742 24.297-3.742.586.438.497 4.478.596 5.214.497 4.195.944 8.371 1.435 12.561.298 2.557.591 5.096.869 7.634.24-.432.505-.85.795-1.25 1.604-5.688 4.47-12.405 10.649-9.514 1.251.611 2.34 1.509 3.178 2.622 4.098 5.394.994 10.605-3.293 14.461-1.074 1.197-2.275 2.273-3.581 3.21.706 1.463 3.586 7.271 3.586 7.291.298.587 10.366-10.829 11.116-12.073 1.12-3.048 1.721-6.263 1.778-9.51.164-13.351-5.26-28.893-16.052-36.5511-2.678-1.8959-1.823-3.7222-1.987-6.3-.012-.1393-.065-.2717-.153-.3802-.088-.1084-.207-.1876-.341-.2269s-.277-.0368-.409.0065c-.133.0438-.249.1264-.334.2379-3.382 3.9014-11.756 3.5132-11.756 3.5132-29.065-7.2952-38.834 5.6531-44.7 7.9621-2.393.9082-5.028.952-7.45.1244-.142.8032-.502 1.5521-1.038 2.1661-.537.614-1.23 1.07-2.007 1.317l.149 1.348c.127 1.032-.108 2.075-.665 2.951z" fill="#adf13f"/><path d="m208.208 118.735c-3.56-.32-6.929-1.751-9.634-4.092-2.704-2.341-4.607-5.474-5.44-8.956-.327-1.335-.533-2.698-.616-4.07l.228-.025c.313-.024.62-.091.914-.199.777-.248 1.47-.703 2.007-1.317.536-.6141.895-1.3635 1.038-2.1667.091-.4454.109-.9027.054-1.3535l-.745-6.5887s5.255 3.9164 11.086 1.6273 15.62-15.2375 44.7-7.9621c0 0 6.566.3882 9.933-3.5133.085-.1114.202-.1941.334-.2374.133-.0437.275-.0457.409-.0064s.253.1184.341.2264c.089.1085.142.2414.153.3807.174 2.5827 1.128 4.409 3.81 6.3 10.792 7.6635 16.216 23.1997 16.047 36.5507-.05 5.539-1.887 11.008-4.723 15.701-.75 1.244-10.818 12.659-11.116 12.072 0 0-2.881-5.827-3.586-7.29l-.169-.324.323-.214c1.199-.815 2.344-1.708 3.427-2.672 4.281-3.857 7.391-9.067 3.293-14.461-.839-1.113-1.927-2.012-3.179-2.623-6.198-2.891-9.044 3.827-10.648 9.515-.312 1.087-.503 2.205-.571 3.334-.075-.696-.149-1.368-.224-2.065-.278-2.538-.571-5.076-.869-7.634-.497-4.19-.964-8.365-1.435-12.56-.075-.716 0-4.777-.596-5.215 0 0-6.69-5.036-24.297 3.742-12.71 6.32-14.404-2.488-18.377 2.21-.931 1.132-1.572 2.474-1.867 3.911-.091.461-.149.929-.174 1.398-.01.061-.01.123 0 .185-.06 1.03-.08 2.055-.105 3.06-.094 9.699.969 19.831 4.768 28.838 4.619 10.918 16.842 21.686 29.552 16.596 3.973-1.598 7.535-4.171 10.793-6.902" stroke="#000" stroke-miterlimit="10" stroke-width="3"/><path d="m216.905 142.39c1.264-.424 1.874-2.01 1.363-3.542-.512-1.533-1.952-2.432-3.216-2.008s-1.874 2.01-1.363 3.542c.512 1.533 1.952 2.432 3.216 2.008z" fill="#000"/><path d="m235.816 141.783c1.264-.424 1.874-2.009 1.363-3.542-.512-1.533-1.952-2.432-3.216-2.008s-1.874 2.01-1.363 3.542c.512 1.533 1.952 2.432 3.216 2.008z" fill="#000"/><g stroke="#000" stroke-miterlimit="10" stroke-width="3"><path d="m228.586 145.065s-6.293 3.578-6.675-.135c-.12-1.144-1.659-12.356-1.659-12.356s-5.086-5.399-12.879-1.408"/><path d="m227.17 129.433s10.162-5.086 16.887 2.244"/><path d="m236.488 170.085 1.167 6.002c-3.68 3.398-6.283 8.27-5.523 13.401.676 4.548 4.391 8.783 8.2 11.167 6.367 3.981 14.835 3.667 21.689 1.134 6.7-2.488 12.497-7.21 16.698-12.973 1.979-2.786 3.297-5.987 3.855-9.36v-.06"/><path d="m237.655 176.086 2.275 10.839"/><path d="m269.824 148.493 3.437 22.866c.339 2.238 1.468 4.281 3.183 5.755 1.714 1.475 3.899 2.285 6.159 2.282 10.697 1.737 21.249 4.271 31.568 7.584 40.315 13.028 65.128 49.414 72.136 90.071 2.916 17.024 3.134 34.879-.526 51.808-2.081 9.53-5.091 20.234-12.079 27.37-9.074 9.306-23.001 5.474-33.724 1.269-33.291-12.973-60.98-36.054-84.89-62.478-12.784-14.132-29.303-25.458-29.303-25.458"/></g><path d="m96.5023 334.1c-3.7349-.035-6.9881-3.056-7.8274-7.261-1.6589-8.27-2.096-21.059 10.0078-23.851 15.1233-3.483 26.7553 13.018 32.4573 23.448 1.917 3.484-.253 7.962-3.824 7.962z" fill="#d7e8f0"/><path d="m101.495 295.965c3.211-2.14 3.26-7.721.11-12.464-3.1498-4.743-8.3062-6.853-11.5171-4.712-3.211 2.14-3.2601 7.721-.1103 12.464 3.1504 4.743 8.3068 6.853 11.5174 4.712z" fill="#d7e8f0"/><path d="m350.036 370.221c-.234.035-.497.069-.725.124h-.09l-35.328-.184-53.009-.274c-.204 0-.402 0-.601 0-.394-.009-.787-.039-1.177-.089 3.591-.418 6.921-2.092 9.402-4.727s3.955-6.063 4.162-9.68c.01-.187.01-.374 0-.562v-.289c-.014-3.538-1.245-6.964-3.485-9.7s-5.352-4.616-8.812-5.323c-.363-.09-.76-.144-1.143-.199.601-.055 1.197-.095 1.778-.095l44.785.239 8.244.035 11.121.055c3.807.348 7.348 2.107 9.931 4.932 2.581 2.825 4.019 6.514 4.03 10.345.001.723-.054 1.445-.164 2.16-.529 3.647-2.348 6.983-5.124 9.4s-6.326 3.756-10.004 3.772h26.909c-1.55 0-1.117 0-.7.06z" fill="#fff"/><path d="m278.377 388.73c1.009 1.016 2.209 1.822 3.531 2.371 1.323.548 2.741.828 4.172.823h-26.015c-4.967 0-7.679-1.214-9.656-3.194-2.031-2.045-3.175-4.81-3.183-7.694 0-5.971 4.887-10.868 12.839-10.868h26.015c-2.148-.004-4.248.632-6.035 1.826s-3.18 2.893-4.002 4.881c-.823 1.988-1.038 4.176-.618 6.286.42 2.111 1.456 4.048 2.977 5.569z" fill="#d7e8f0"/><path d="m364.295 355.103c-.006 2.298-.54 4.564-1.559 6.623-.729 1.557-1.727 2.971-2.951 4.175-2.017 2.003-4.55 3.404-7.316 4.046-1.14.264-2.306.398-3.476.398.238-.055.496-.089.725-.124-.417-.04-.849-.055.705-.055h-26.914c3.681-.014 7.234-1.353 10.012-3.771 2.778-2.419 4.598-5.757 5.126-9.406.11-.715.165-1.437.164-2.16-.011-3.831-1.449-7.521-4.032-10.346-2.583-2.826-6.126-4.584-9.934-4.931l14.527.074 9.705.055c4.056.034 7.933 1.676 10.784 4.565 2.852 2.89 4.446 6.793 4.434 10.857z" fill="#adf13f"/><g stroke="#000" stroke-linecap="square" stroke-linejoin="round" stroke-width="3"><path d="m364.295 355.099c-.03 4.066-1.667 7.954-4.553 10.813s-6.785 4.455-10.844 4.439l-88.367-.458c-.591 0-1.182-.044-1.778-.104 3.725-.423 7.166-2.2 9.671-4.995 2.504-2.795 3.898-6.413 3.918-10.169.019-3.756-1.337-7.389-3.812-10.21-2.476-2.821-5.897-4.634-9.618-5.096.591-.062 1.184-.092 1.778-.09l88.367.458c4.058.028 7.94 1.665 10.795 4.554 2.856 2.888 4.453 6.792 4.443 10.858z"/><path d="m338.801 354.825c-.008 4.065-1.623 7.961-4.492 10.835-2.869 2.875-6.758 4.494-10.815 4.502h-62.873c-.594-.004-1.188-.037-1.778-.1 3.722-.443 7.153-2.238 9.643-5.046 2.489-2.808 3.864-6.433 3.864-10.189s-1.375-7.381-3.864-10.189c-2.49-2.808-5.921-4.603-9.643-5.046.591-.055 1.187-.094 1.778-.094h62.873c4.055.009 7.942 1.626 10.81 4.498 2.869 2.872 4.485 6.765 4.497 10.829z"/><path d="m247.226 381.039c-.001 1.427.28 2.841.825 4.159.546 1.319 1.345 2.516 2.353 3.525 1.987 1.99 4.684 3.199 9.656 3.199h90.358c-1.554 0-1.132-.029-.71-.069-2.644-.312-5.081-1.585-6.851-3.579-1.769-1.993-2.746-4.568-2.746-7.235s.977-5.241 2.746-7.235c1.77-1.993 4.207-3.266 6.851-3.578-.422-.04-.844-.07.71-.07h-90.358c-7.957.005-12.834 4.902-12.834 10.883z"/><path d="m275.188 381.039c.007 2.885 1.153 5.649 3.189 7.689 2.036 2.039 4.795 3.188 7.673 3.194h62.396c.418 0 .84-.029 1.262-.069-2.644-.312-5.081-1.585-6.851-3.579-1.769-1.993-2.746-4.568-2.746-7.235s.977-5.241 2.746-7.235c1.77-1.993 4.207-3.266 6.851-3.578-.422-.04-.844-.07-1.262-.07h-62.396c-2.878.008-5.636 1.157-7.672 3.196-2.035 2.04-3.182 4.803-3.19 7.687z"/></g><path d="m174.042 298.006h-27.873c-1.275-.002-2.523-.376-3.589-1.076-1.067-.7-1.908-1.695-2.421-2.866-.197-.435-.282-.914-.246-1.391.037-.477.193-.937.455-1.338.262-.4.62-.727 1.042-.952.423-.223.894-.337 1.372-.329h29.631c-1.396 2.353-.686 5.623 1.629 7.952z" fill="#d7e8f0"/><path d="m192.066 295.128c-.002.762-.303 1.491-.841 2.029-.537.539-1.265.842-2.025.843h-15.158c-2.315-2.324-3.025-5.594-1.629-7.962h13.385c1.274 0 2.52.371 3.588 1.067 1.067.696 1.911 1.687 2.427 2.854.16.37.246.767.253 1.169z" fill="#adf13f"/><path d="m185.093 298.005c-.079.152-.17.297-.273.433-1.987 2.722-6.303 2.986-9.656.528-.396-.293-.771-.614-1.122-.961-2.315-2.324-3.025-5.593-1.629-7.962.078-.152.17-.296.273-.433 1.987-2.742 6.283-2.986 9.635-.547.404.302.784.635 1.138.995 2.294 2.314 3.01 5.564 1.634 7.947z" fill="#fff"/><path d="m199.074 312.661c-.006.762-.311 1.491-.851 2.028-.539.537-1.269.839-2.03.839h-29.248c1.41-2.379.705-5.623-1.615-7.962h27.476c1.276 0 2.524.372 3.592 1.071s1.91 1.694 2.423 2.865c.164.365.249.759.253 1.159z" fill="#adf13f"/><path d="m166.945 315.526h-13.763c-1.274.001-2.521-.369-3.589-1.065s-1.911-1.689-2.426-2.856c-.162-.365-.248-.759-.253-1.16 0-.376.073-.749.217-1.097.143-.348.354-.664.619-.931.266-.266.582-.477.929-.621.348-.144.72-.217 1.096-.217h15.555c2.32 2.324 3.04 5.569 1.615 7.947z" fill="#d7e8f0"/><path d="m166.945 315.527c-.065.156-.15.303-.254.438-1.986 2.737-6.288 2.986-9.635.542-.405-.302-.787-.635-1.142-.995-2.3-2.324-3.005-5.569-1.629-7.962.079-.153.17-.3.273-.438 1.986-2.722 6.302-2.986 9.65-.523.399.291.774.612 1.122.961 2.32 2.354 3.04 5.598 1.615 7.977z" fill="#fff"/><path d="m176.689 332.93h-17.512c-1.274-.002-2.519-.373-3.587-1.069s-1.911-1.687-2.428-2.853c-.197-.436-.281-.916-.244-1.394s.193-.939.455-1.341c.262-.401.621-.73 1.043-.955.423-.226.895-.341 1.373-.335h19.271c-1.381 2.383-.67 5.623 1.629 7.947z" fill="#adf13f"/><path d="m205.069 330.083c-.004.757-.308 1.482-.844 2.015-.536.534-1.262.832-2.017.831h-25.519c-2.299-2.324-3.01-5.568-1.629-7.962h23.741c1.275 0 2.523.373 3.592 1.072 1.067.699 1.909 1.694 2.422 2.865.164.371.25.772.254 1.179z" fill="#d7e8f0"/><path d="m187.74 332.93c-.079.153-.171.299-.273.438-1.987 2.737-6.283 2.986-9.635.542-.403-.304-.783-.636-1.138-.995-2.299-2.324-3.01-5.568-1.629-7.962.076-.154.165-.301.268-.438 1.987-2.722 6.303-2.956 9.655-.523.399.291.774.612 1.123.961 2.314 2.354 3.02 5.618 1.629 7.977z" fill="#fff"/><path d="m55.433 174.28.437.125-.1639.637c-.1038-.249-.1952-.503-.2731-.762z" fill="#353642"/><path d="m133.159 214.093c6.538-1.923 9.973-9.846 7.673-17.697-2.3-7.85-9.464-12.656-16.002-10.733s-9.973 9.846-7.673 17.697c2.3 7.85 9.465 12.656 16.002 10.733z" fill="#d7e8f0"/></svg>