<svg fill="none" height="642" viewBox="0 0 642 642" width="642" xmlns="http://www.w3.org/2000/svg" xmlns:xlink="http://www.w3.org/1999/xlink"><mask id="a" height="642" maskUnits="userSpaceOnUse" width="642" x="0" y="0"><path d="m0 0h642v642h-642z" fill="#646d5e"/></mask><g mask="url(#a)"><path d="m-327-184h1179v1650h-1179z" fill="#d2efa1"/><path d="m226.714 79.7185c-15.829 27.4385-20.017 42.6725-22.285 69.6975 9.845-20.671 15.951-29.737 27.428-43.418 7.844 12.713 17.5 17.906 41.715 24.565 15.453 7.563 27.203 8.166 56 0 31.268-.985 48.971-10.03 80.571-27.422 29.688 77.012 38.127 120.645 37.714 186.813l77.143-13.711c5.827-8.086 10.481-25.042 19.429-61.129 5.671-35.019 7.146-55.656 0-98.262-8.617-24.7897-21.392-38.6635-55.429-63.4129-30.729-26.237-48.81-38.0136-87.428-37.1339-24.527-7.71204-38.547-9.0743-64.572 0-14.806-.7874-23.402-1.9885-34.286 7.4268-12.026-3.1735-18.205.9433-29.142 9.1407-22.214 13.6631-32.812 23.5355-46.858 46.8458z" fill="#f2ffdd"/><path d="m200.619 584.74c-159.4796 47.104-218.5239 70.937-239.619 106.26h720v-85.122l-.385-.175c-24.951-11.355-39.035-17.765-149.448-60.382-56.496-15.523-80.712-28.815-100.652-66.841 6.623-44.188 13.534-68.774 37.745-111.973 23.738-8.519 35.796-16.114 54.329-36.563 17.85-31.758 21.262-46.728 0-61.699-24.556 3.107-41.567 8.773-73.773 21.138 12.064-17.012 16.984-28.078 19.444-53.131-25.684-44.869-23.425-67.901-11.438-107.974-2.678-20.831-21.547-30.7112-64.051-47.4167-63.416 40.8227-98.995 64.8667-160.127 0-18.144 32.1647-28.142 52.3937-43.463 119.9707v35.42c-13.789 57.784-9.619 90.182 0 147.965 7.195 51.524 13.74 71.728 32.597 82.837-4.592 64.362-9.695 87.772-21.159 117.686z" fill="#646d5e"/><path d="m164.429 276.815c-8.727-19.336-10.419-52.419 1.714-61.7 14.471-8.389 40.01-.071 73.143 17.139 19.399-.422 30.671 1.097 51.428 7.427 30.476-1.466 45.423.952 69.143 9.712 17.668 10.838 26.156 14.872 37.143 15.996 24.962.768 39.275-1.072 65.143-6.856 72-4.398 56.663 19.602 31.428 23.994 23.842-15.986 9.424-19.117-31.428-17.138-22.107 1.799-35.806 3.236-65.143 7.427-8.28-3.233-18.277-3.556-22.881 15.424-4.604 18.981-3.223 16.36-7.405 25.708-7.966 11.229-13.972 14.608-27.428 15.425-18.185-1.511-34.286 0-48.572-15.425-14.286-15.424-18.756-43.736-13.143-64.555-5.391-6.732-9.63-10.017-32.571-9.712-5.201 42.839-11.188 60.609-37.143 61.128-19.28-2.476-35.999-8.57-43.428-23.994z" fill="#000" stroke="#000" stroke-width="2"/></g></svg>