<svg fill="none" height="643" viewBox="0 0 642 643" width="642" xmlns="http://www.w3.org/2000/svg"><path d="m0 .5h641v642h-641z" fill="#d2efa1"/><path d="m81.5003 121.5c-2.667-53.489-1.9476-81.3733 10-121h241.4997s174 317 181.5 336.5 64.923 230.188 126.5 255.5v48.5h-197.5c-4.343-36.67-8.983-56.328-25.5-88-55.797 41.05-87.182 63.841-157.5 72.5-53.624 3.245-72.41-14.621-91-72.5-29.609-64.566-44.886-102.153-68-173.5-12.5772-48.618-13.4578-75.881 0-124.5 0 0-6.0265-17.394-9.9997-28.5-7.0134-19.603-18.5-50-18.5-50-2.6088-21.433 1.7185-33.494 8.5-55z" fill="#353642" fill-opacity=".7" stroke="#adf13f" stroke-dasharray="30 10" stroke-linecap="square"/><path d="m378.5 215.5-72-10.5c47.2-.284 72.645-4.067 117-14.5-20.275 16.838-31.337 25.479-45 25z" fill="#000"/><path d="m255 237.5 24-22c9.299-6.932 15.596-8.688 27.5-10.5m0 0 72 10.5c13.663.479 24.725-8.162 45-25-44.355 10.433-69.8 14.216-117 14.5z" stroke="#000" stroke-linecap="round"/><g fill="#f2ffdd" stroke="#adf13f" stroke-dasharray="30 10" stroke-linecap="square" stroke-opacity=".01"><path d="m641 1h-307.5l181 335.5c20.879 64.984 31.206 101.3 60.5 167 23.424 44.39 35.546 73.502 66 88.5z"/><path d="m343.5 129.5-107.5 34c-1.619-9.994-2.031-15.703 0-26.5 44.473-13.925 70.022-20.003 117-27l34.5 19.5 20.5 24.5c-20.987-13.294-32.205-21.234-64.5-24.5z"/><path d="m84.5 158 52 16-8.5-19.5-43.5-15.5c-5.2326 5.451-7.452 8.799-9.5 15.5v19.5c1.1721-7.159 3.15-10.683 9.5-16z"/></g><path d="m114.5 216.37c16.617-3.554 24.567-1.111 37 1.63-18-3.026-33 .499-41.5 3.499-8.5 3.001-14.5 15.5-14.5 15.5-10.25-3.454-13.0617-5.122-23.5-13.129 10.0217 1.889 15.4171 4.237 26.5 0 6.142-3.51 9.652-5.133 16-7.5z" fill="#000"/><path d="m175.5 240.87c-7.987-9.819-7.765-14.367-24-22.87m0 0c-12.433-2.741-20.383-5.184-37-1.63-6.348 2.367-9.858 3.99-16 7.5-11.0829 4.237-16.4783 1.889-26.5 0 10.4383 8.007 13.25 9.675 23.5 13.129 0 0 6-12.499 14.5-15.5 8.5-3 23.5-6.525 41.5-3.499z" stroke="#000" stroke-linecap="round"/></svg>