<svg fill="none" height="1000" viewBox="0 0 1000 1000" width="1000" xmlns="http://www.w3.org/2000/svg" xmlns:xlink="http://www.w3.org/1999/xlink"><clipPath id="a"><path d="m0 0h1000v1000h-1000z"/></clipPath><mask id="b" height="1000" maskUnits="userSpaceOnUse" width="1000" x="0" y="0"><path d="m1000 0h-1000v1000h1000z" fill="#fff"/></mask><g clip-path="url(#a)"><g mask="url(#b)"><path d="m656.4 1203.44v-546.823h250.5v618.503" stroke="#ccdde2" stroke-miterlimit="10" stroke-width="4.82"/><g fill="#d7e8f0"><path d="m681.3 707v32h32v-58.73h-32zm5.26-21.48h21.44v21.48h-21.44zm0 26.73h21.44v21.479h-21.44z"/><path d="m737.72 707v32h32v-58.73h-32zm5.28-21.47h21.48v21.47h-21.48zm0 26.73h21.48v21.48h-21.48z"/><path d="m792.6 707v32h32v-58.73h-32zm5.26-21.48h21.48v21.48h-21.48zm0 26.73h21.48v21.479h-21.48z"/><path d="m844.26 680.27v58.73h32v-58.73zm26.74 53.47h-21.49v-21.48h21.49zm0-26.74h-21.49v-21.47h21.49z"/><path d="m681.3 785.997v32h32v-58.72h-32zm5.26-21.48h21.44v21.48h-21.44zm0 26.73h21.44v21.48h-21.44z"/><path d="m737.72 785.997v32h32v-58.72h-32zm5.28-21.47h21.48v21.47h-21.48zm0 26.73h21.48v21.48h-21.48z"/><path d="m792.6 785.997v32h32v-58.72h-32zm5.26-21.48h21.48v21.48h-21.48zm0 26.73h21.48v21.48h-21.48z"/><path d="m844.26 785.997v32h32v-58.72h-32zm5.25-21.48h21.49v21.48h-21.49zm0 26.73h21.49v21.48h-21.49z"/><path d="m681.3 864.997v32h32v-58.72h-32zm5.26-21.48h21.44v21.48h-21.44zm0 26.74h21.44v21.48h-21.44z"/><path d="m737.72 864.997v32h32v-58.72h-32zm5.28-21.47h21.48v21.47h-21.48zm0 26.74h21.48v21.48h-21.48z"/><path d="m792.6 864.997v32h32v-58.72h-32zm5.26-21.48h21.48v21.48h-21.48zm0 26.74h21.48v21.48h-21.48z"/><path d="m844.26 864.997v32h32v-58.72h-32zm5.25-21.48h21.49v21.48h-21.49zm0 26.74h21.49v21.48h-21.49z"/><path d="m681.3 943.997v32h32v-58.72h-32zm5.26-21.48h21.44v21.48h-21.44zm0 26.73h21.44v21.48h-21.44z"/><path d="m737.72 943.997v32h32v-58.72h-32zm5.28-21.46h21.48v21.46h-21.48zm0 26.73h21.48v21.48h-21.48z"/><path d="m792.6 943.997v32h32v-58.72h-32zm5.26-21.48h21.48v21.48h-21.48zm0 26.73h21.48v21.48h-21.48z"/><path d="m844.26 943.997v32h32v-58.72h-32zm5.25-21.48h21.49v21.48h-21.49zm0 26.73h21.49v21.48h-21.49z"/><path d="m681.3 1023v32h32v-58.723h-32zm5.26-21.48h21.44v21.48h-21.44zm0 26.73h21.44v21.48h-21.44z"/><path d="m737.72 1023v32h32v-58.723h-32zm5.26-21.48h21.48v21.48h-21.46zm0 26.73h21.48v21.48h-21.46z"/><path d="m792.6 1023v32h32v-58.723h-32zm5.26-21.48h21.48v21.48h-21.48zm0 26.73h21.48v21.48h-21.48z"/><path d="m844.26 1023v32h32v-58.723h-32zm5.25-21.48h21.49v21.48h-21.49zm0 26.73h21.49v21.48h-21.49z"/></g><path d="m519.3 433.749v-273.53h250.49v496.42" stroke="#ccdde2" stroke-miterlimit="10" stroke-width="4.82"/><g fill="#d7e8f0"><path d="m544.2 210.599v32h32v-58.74h-32zm5.26-21.48h21.48v21.48h-21.48zm0 26.73h21.48v21.48h-21.48z"/><path d="m600.63 210.599v32h32v-58.74h-32zm5.25-21.48h21.48v21.48h-21.48zm0 26.73h21.48v21.48h-21.48z"/><path d="m655.51 210.599v32h32v-58.74h-32zm5.25-21.48h21.48v21.48h-21.48zm0 26.73h21.48v21.48h-21.48z"/><path d="m707.16 183.859v58.72h32v-58.72zm26.73 53.47h-21.47v-21.48h21.47zm0-26.73h-21.47v-21.48h21.47z"/><path d="m544.2 289.597v32h32v-58.73h-32zm5.26-21.48h21.48v21.48h-21.48zm0 26.73h21.48v21.48h-21.48z"/><path d="m600.63 289.597v32h32v-58.73h-32zm5.25-21.48h21.48v21.48h-21.48zm0 26.73h21.48v21.48h-21.48z"/><path d="m655.51 289.597v32h32v-58.73h-32zm5.25-21.48h21.48v21.48h-21.48zm0 26.73h21.48v21.48h-21.48z"/><path d="m707.16 289.597v32h32v-58.73h-32zm5.26-21.48h21.47v21.48h-21.47zm0 26.73h21.47v21.48h-21.47z"/><path d="m544.2 368.597v32h32v-58.73h-32zm5.26-21.48h21.48v21.48h-21.48zm0 26.74h21.48v21.48h-21.48z"/><path d="m600.63 368.597v32h32v-58.73h-32zm5.25-21.48h21.48v21.48h-21.48zm0 26.74h21.48v21.48h-21.48z"/><path d="m655.51 368.597v32h32v-58.73h-32zm5.25-21.48h21.48v21.48h-21.48zm0 26.74h21.48v21.48h-21.48z"/><path d="m707.16 368.597v32h32v-58.73h-32zm5.26-21.48h21.47v21.48h-21.47zm0 26.74h21.47v21.48h-21.47z"/><path d="m544.2 447.607v32h32v-58.74h-32zm5.26-21.48h21.48v21.48h-21.48zm0 26.73h21.48v21.48h-21.48z"/><path d="m600.63 447.607v32h32v-58.74h-32zm5.25-21.48h21.48v21.48h-21.48zm0 26.73h21.48v21.48h-21.48z"/><path d="m655.51 447.607v32h32v-58.74h-32zm5.25-21.48h21.48v21.48h-21.48zm0 26.73h21.48v21.48h-21.48z"/><path d="m707.16 447.607v32h32v-58.74h-32zm5.26-21.48h21.47v21.48h-21.47zm0 26.73h21.47v21.48h-21.47z"/><path d="m600.63 526.607v32h32v-58.74h-32zm5.25-21.48h21.48v21.48h-21.48zm0 26.73h21.48v21.48h-21.48z"/><path d="m655.51 526.607v32h32v-58.74h-32zm5.25-21.48h21.48v21.48h-21.48zm0 26.73h21.48v21.48h-21.48z"/><path d="m707.16 526.607v32h32v-58.74h-32zm5.26-21.48h21.47v21.48h-21.47zm0 26.73h21.47v21.48h-21.47z"/></g><path d="m275.14 380.998c-15-32.38-26.15-66.43-35.56-100.82-25.69-93.91 31.27-205.0997 129.49-225.6897 33.37-7 68.14-5.32 101.38 1.55 54.91 11.33 103.7 50.3197 131.25 99.1297 13.89 24.6 22.67 52.31 23.64 80.64 1.17 34.06-15.1 62.95-20.25 95.94l-.18 1.1" stroke="#ccdde2" stroke-miterlimit="10" stroke-width="4.82"/><path d="m607.28 949.839c-3.12.51 3.11-.42 0 0zm0 0c99.72.16 176.13-76.73 163.72-187.31-11.71-104.14-71.46-174.07-139.75-244.29-30.09-30.94-52.68-106.49-31.93-133.86" stroke="#ccdde2" stroke-miterlimit="10" stroke-width="4.82"/><path d="m225.65 550.49c0 2.12.07 4.24.13 6.32 1.22 37.19 10.05 61.64 15.38 73.19-1.745-4.93-2.347-10.193-1.76-15.39.375-3.526.932-7.031 1.67-10.5 4.19-19.467 13.695-37.391 27.46-51.78l.13-.12c1.83-1.9 3.24-3.18 4-3.86l.34-.35.35-.28 155.09-147.55c.968-6.351 1.582-12.751 1.84-19.17 7.8 1.19 16.34 2.09 25.69 2.7 7.35.45 15.26.71 23.67.74 77.31.26 110.52 12.2 123.4 19.24.738.406 1.569.614 2.411.601.842-.012 1.667-.244 2.393-.671.725-.428 1.327-1.038 1.745-1.769.419-.731.639-1.559.641-2.401v-64.11c-9-4.85-20.1-8.22-33.85-9.41-37.13-3.21-77.92-3-112.73-17.92-26-11.15-49.47-33.41-76-44.65-13-5.49-26.6-8.32-41.63-6-16.83 2.63-31 10.15-43 20.46-.16.12-.29.29-.45.41-13.71 11.92-24.54 27.43-32.92 43.3-26.43 49.94-42.17 114.08-43.55 171.25v.64c0 2.57-.06 5.11-.06 7.65z" fill="#2e2e2e"/><path d="m321.28 146.471v15.13h110.29v-15.13c.003-1.189-.06-2.378-.19-3.56-.883-8.701-4.968-16.763-11.462-22.621-6.493-5.858-14.932-9.094-23.678-9.079h-39.7c-4.631-.003-9.217.908-13.497 2.679-4.279 1.771-8.167 4.368-11.441 7.643-3.275 3.274-5.872 7.162-7.643 11.441-1.771 4.28-2.682 8.866-2.679 13.497z" fill="#2e2e2e"/><path d="m472.94 609.999 15.28 38.51h96c1.343-.001 2.673-.266 3.914-.781 1.24-.514 2.367-1.269 3.316-2.219 1.911-1.934 2.989-4.541 3-7.26-.006-2.35-.82-4.627-2.306-6.448s-3.553-3.075-5.854-3.552l-43.59-8.93-5.78-22.1z" fill="#adf13f"/><path d="m610.16 926.18-31-42v-28.59h-51.29c-.231.004-.457.07-.654.191s-.358.292-.467.495c-.109.204-.162.433-.153.664s.079.455.204.65l59.2 85.83c1.364 1.977 3.188 3.593 5.315 4.709 2.127 1.117 4.493 1.7 6.895 1.701 2.747.001 5.44-.76 7.78-2.198s4.234-3.498 5.473-5.95c1.239-2.451 1.773-5.198 1.543-7.935s-1.215-5.357-2.846-7.567z" fill="#adf13f"/><path d="m329.44 183.47c2.929 9.502 4.422 19.388 4.43 29.33 21.68 0 25.76-10.57 24.09-18.92-1.86-9.28.93-22.23 13.87-24.09s9.29 18.53 7.75 42.59c.04 5.175.894 10.311 2.53 15.22 2.432 7.407 7.528 13.647 14.3 17.51 6.459 3.577 13.749 5.382 21.13 5.23 0 0 12.65-31.47 3.82-34.07s-29.13-25.18-24.51-53c.1-.61.2-1.15.33-1.7h-70.95c-.16 7.428.925 14.831 3.21 21.9z" fill="#adf13f"/><g stroke="#000" stroke-miterlimit="10" stroke-width="4.82"><path d="m226.17 492.801v.64c0 2.57-.06 5.11-.06 7.65l-.35 49.52c0 2.09.06 4.15.12 6.2"/><path d="m241.17 604.059c8.755 13.651 20.804 24.881 35.038 32.654 14.233 7.773 30.194 11.84 46.412 11.826h178c16.54 0 24.76 8.22 24.76 18.34v264.12c0 4.999 1.986 9.794 5.521 13.329s8.33 5.521 13.329 5.521h65.09"/><path d="m610.16 926.18-31-42v-28.59h-51.29c-.231.004-.457.07-.654.191s-.358.292-.467.495c-.109.204-.162.433-.153.664s.079.455.204.65l59.2 85.83c1.364 1.977 3.188 3.593 5.315 4.709 2.127 1.117 4.493 1.7 6.895 1.701 2.747.001 5.44-.76 7.78-2.198s4.234-3.498 5.473-5.95c1.239-2.451 1.773-5.198 1.543-7.935s-1.215-5.357-2.846-7.567z"/><path d="m429.17 547.738 20.27 3.05"/><path d="m569.72 571.602c42.33 16.42 67 56.73 61.92 100.25l-21.29 183.74h-85"/><path d="m427.26 494.921 12.3 31 9.86 24.89 23.52 59.19 15.28 38.51h96c1.343-.001 2.673-.266 3.914-.781 1.24-.514 2.367-1.269 3.316-2.219 1.912-1.934 2.989-4.541 3-7.26-.006-2.35-.82-4.627-2.306-6.448s-3.553-3.075-5.854-3.552l-43.59-8.93-5.78-22.1 39.6-7.1-6.77-18.53-57.4-157c-12-33-56.85-40.09-82.28-15.87l-1.48 1.41-160.7 152.87"/><path d="m331.36 648.542c15.033.001 29.754-4.29 42.431-12.37s22.783-19.612 29.129-33.24l26.24-55.17 10.4-21.84"/><path d="m352.17 343.29s12.24 27.82 78.21 37.74c7.8 1.193 16.363 2.093 25.69 2.7 7.333.447 15.223.693 23.67.74 77.31.26 110.52 12.2 123.4 19.24.738.406 1.57.613 2.412.6.843-.013 1.668-.244 2.394-.672.726-.427 1.329-1.036 1.748-1.767.42-.731.643-1.558.646-2.401v-28.3c5.87 3.92 10.18 9.73 13.29 16.32 3.89 8 6 17.24 7.13 25.69.922 6.673 1.363 13.404 1.32 20.14-.001 1.661.657 3.254 1.83 4.43.575.592 1.264 1.062 2.025 1.381.762.32 1.579.483 2.405.479 1.485.004 2.924-.52 4.059-1.477 1.136-.958 1.894-2.288 2.141-3.753 3-17.7 8.93-75.67-34.2-99.05-9-4.85-20.11-8.22-33.86-9.41-37.12-3.21-77.91-3-112.73-17.92-26.05-11.15-49.49-33.44-76-44.65-12.95-5.49-26.6-8.32-41.63-6-16.83 2.63-31 10.15-43 20.46-13.94 12-24.9 27.68-33.38 43.71-26.43 49.94-42.17 114.08-43.55 171.25v.64c0 2.57-.06 5.11-.06 7.65"/><path d="m382.22 227.8-.09-.2c-1.85-3.68-3-8.61-2.54-15.21 1.52-24.08 5.23-44.46-7.74-42.6s-15.74 14.82-13.85 24.08c1.67 8.36-2.39 19-24.08 18.94"/><path d="m421.36 216.272c1.71-6.26 16.54-5.38 9.89-18.94-3.79-7.74-4-20.93-1.62-35.73"/><path d="m326.23 161.602c-.146 7.416.936 14.806 3.2 21.87 2.945 9.501 4.445 19.392 4.45 29.34l-.36 17.51c-.116 8.117-2.195 16.085-6.059 23.225-3.865 7.139-9.399 13.238-16.131 17.775-3.12 2.016-6.034 4.334-8.7 6.92"/><path d="m379.59 212.39c.034 5.173.891 10.307 2.54 15.21 8.49 24.28 35.4 22.73 35.4 22.73s12.67-31.46 3.83-34.06-29.13-25.18-24.5-53c.09-.59.21-1.16.33-1.7"/><path d="m431.66 142.898h.18"/><path d="m472.94 610.03 63.94-12.78"/><path d="m610.34 371.168v-35.84"/><path d="m623.65 387.469c-5.66 9.8-4.34 29.62 1.79 29.23 2.12-.16 3.89-1.61 5.34-3.53"/><path d="m431.84 161.599v-15.12c0-4.635-.913-9.225-2.688-13.508-1.775-4.282-4.377-8.173-7.656-11.449-3.279-3.277-7.172-5.875-11.456-7.646s-8.874-2.681-13.51-2.677h-39.7c-4.635-.004-9.225.906-13.507 2.678-4.283 1.771-8.174 4.369-11.452 7.646s-5.877 7.168-7.65 11.45-2.684 8.872-2.681 13.506v15.12h149.74"/><path d="m402.19 161.6c.7-41.07-22.69-49.46-25.49-50.32-.178-.061-.372-.061-.55 0-2.8.86-26.19 9.25-25.49 50.32"/></g><path d="m384.33 111c-.073-2.048-.938-3.988-2.412-5.411-1.475-1.423-3.444-2.218-5.493-2.218s-4.018.795-5.493 2.218c-1.474 1.423-2.339 3.363-2.412 5.411z" fill="#000"/><path d="m396.41 245.09-8.64 18.25" stroke="#000" stroke-miterlimit="10" stroke-width="4.82"/><path d="m426.88 176.999s-13.49-2.43-18.63 8" stroke="#000" stroke-miterlimit="10" stroke-width="4.76"/><path d="m420.338 191.377c1.885-1.313 2.508-3.678 1.39-5.282-1.117-1.605-3.552-1.841-5.437-.527-1.885 1.313-2.507 3.678-1.39 5.282 1.118 1.604 3.552 1.84 5.437.527z" fill="#000"/><g stroke="#000" stroke-miterlimit="10"><path d="m409.4 218.531s5.13 7.23 15.6 4.65" stroke-width="4.76"/><path d="m273.42 547.738s-29.42 23.86-33.93 66.84c-1.86 17.73 9.3 33.95 27.13 33.95h58.49" stroke-width="4.82"/><path d="m245.29 637.648s-20.44-31.41-19.52-94" stroke-width="4.82"/><path d="m428.55 400.17c.965-6.351 1.576-12.751 1.83-19.17" stroke-width="4.82"/></g><path d="m243.69 607.771s-1.15-2.15-2.52.86-6.94 27.87 10.2 35.11 53.13 3.11 53.13 3.11-42.5-9.02-60.81-39.08z" fill="#000"/></g></g></svg>